<svg width="38" height="17" viewBox="0 0 38 17" fill="none" xmlns="http://www.w3.org/2000/svg">
<path d="M4.77804 7.36293V11.1217C4.77804 11.5796 4.40684 11.9508 3.94893 11.9508C3.49101 11.9508 3.11981 11.5796 3.11981 11.1217V7.36293C3.11981 6.90501 3.49101 6.53381 3.94893 6.53381C4.40684 6.53381 4.77804 6.90501 4.77804 7.36293Z" fill="url(#paint0_linear_8_209)"/>
<path d="M9.01333 7.36293V11.1217C9.01333 11.5796 8.64213 11.9508 8.18422 11.9508C7.7263 11.9508 7.3551 11.5796 7.3551 11.1217V7.36293C7.3551 6.90501 7.7263 6.53381 8.18422 6.53381C8.64213 6.53381 9.01333 6.90501 9.01333 7.36293Z" fill="url(#paint1_linear_8_209)"/>
<path d="M14.0655 8.45873V11.3199C14.0655 11.6685 13.6943 11.951 13.2363 11.951C12.7784 11.951 12.4072 11.6684 12.4072 11.3199V8.45873C12.4072 8.11011 12.7784 7.82764 13.2363 7.82764C13.6943 7.82751 14.0655 8.11011 14.0655 8.45873Z" fill="url(#paint2_linear_8_209)"/>
<path d="M20.6403 8.45873V11.3199C20.6403 11.6685 20.2691 11.951 19.8112 11.951C19.3533 11.951 18.9821 11.6684 18.9821 11.3199V8.45873C18.9821 8.11011 19.3533 7.82764 19.8112 7.82764C20.2691 7.82751 20.6403 8.11011 20.6403 8.45873Z" fill="url(#paint3_linear_8_209)"/>
<path d="M27.3222 8.45873V11.3199C27.3222 11.6685 26.951 11.951 26.4931 11.951C26.0352 11.951 25.664 11.6684 25.664 11.3199V8.45873C25.664 8.11011 26.0352 7.82764 26.4931 7.82764C26.951 7.82751 27.3222 8.11011 27.3222 8.45873Z" fill="url(#paint4_linear_8_209)"/>
<path d="M33.4975 8.45873V11.3199C33.4975 11.6685 33.1263 11.951 32.6684 11.951C32.2105 11.951 31.8393 11.6684 31.8393 11.3199V8.45873C31.8393 8.11011 32.2105 7.82764 32.6684 7.82764C33.1263 7.82751 33.4975 8.11011 33.4975 8.45873Z" fill="url(#paint5_linear_8_209)"/>
<path d="M8.18761 0.455933C7.72267 0.455933 7.25773 0.622835 7.25773 1.01637V3.93716H4.88534V1.01637C4.88534 0.622835 4.4204 0.455933 3.95546 0.455933C3.49051 0.455933 3.02557 0.622835 3.02557 1.01637V8.59861C3.02557 8.97998 3.49051 9.17085 3.95546 9.17085C4.4204 9.17085 4.88534 8.97998 4.88534 8.59861V5.36774H7.25773V8.59861C7.25773 8.97998 7.72267 9.17085 8.18761 9.17085C8.65256 9.17085 9.1175 8.97998 9.1175 8.59861V1.01637C9.11762 0.622835 8.65268 0.455933 8.18761 0.455933Z" fill="url(#paint6_linear_8_209)"/>
<path d="M13.2303 0.455933C11.5851 0.455933 10.3095 1.21891 10.3095 3.26955V6.42877C10.3095 8.4794 11.5851 9.24238 13.2303 9.24238C14.8755 9.24238 16.163 8.4794 16.163 6.42877V3.26955C16.163 1.21891 14.8755 0.455933 13.2303 0.455933ZM14.3032 6.42877C14.3032 7.25148 13.898 7.62092 13.2303 7.62092C12.5626 7.62092 12.1693 7.25148 12.1693 6.42877V3.26955C12.1693 2.44683 12.5627 2.07739 13.2303 2.07739C13.8979 2.07739 14.3032 2.44683 14.3032 3.26955V6.42877Z" fill="url(#paint7_linear_8_209)"/>
<path d="M22.3862 0.455933H17.236C16.8426 0.455933 16.6757 0.885235 16.6757 1.27865C16.6757 1.73167 16.8783 2.12508 17.236 2.12508H18.8811V8.59861C18.8811 8.97998 19.3461 9.17085 19.811 9.17085C20.276 9.17085 20.7409 8.97998 20.7409 8.59861V2.12508H22.3861C22.7437 2.12508 22.9464 1.73167 22.9464 1.27865C22.9465 0.885235 22.7796 0.455933 22.3862 0.455933Z" fill="url(#paint8_linear_8_209)"/>
<path d="M28.7403 2.07739C29.0981 2.07739 29.3007 1.6959 29.3007 1.25468C29.3007 0.873186 29.1338 0.455933 28.7403 0.455933H24.4962C24.091 0.455933 23.6855 0.646804 23.6855 1.02829V8.59861C23.6855 8.97998 24.0909 9.17085 24.4962 9.17085H28.7403C29.1338 9.17085 29.3007 8.7536 29.3007 8.37211C29.3007 7.93101 29.0981 7.54952 28.7403 7.54952H25.5453V5.52285H27.3335C27.7271 5.52285 27.8939 5.14136 27.8939 4.81948C27.8939 4.43799 27.6913 4.09226 27.3335 4.09226H25.5453V2.07752H28.7403V2.07739Z" fill="url(#paint9_linear_8_209)"/>
<path d="M34.689 7.54952H31.9709V1.01637C31.9709 0.622835 31.5059 0.455933 31.041 0.455933C30.5761 0.455933 30.1111 0.622835 30.1111 1.01637V8.59861C30.1111 8.97998 30.5165 9.17085 30.9218 9.17085H34.6891C35.0469 9.17085 35.2256 8.76552 35.2256 8.36018C35.2255 7.95473 35.0468 7.54952 34.689 7.54952Z" fill="url(#paint10_linear_8_209)"/>
<path d="M35.9299 16.1539H2.0701C1.16293 16.1539 0.427429 15.4185 0.427429 14.5112V11.8053C0.427429 10.8981 1.1628 10.1626 2.0701 10.1626H35.9299C36.837 10.1626 37.5725 10.898 37.5725 11.8053V14.5112C37.5725 15.4185 36.8372 16.1539 35.9299 16.1539Z" fill="url(#paint11_linear_8_209)"/>
<path d="M36.2835 10.1626H19V16.1539H36.2835C36.9954 16.1539 37.5726 15.2167 37.5726 14.0607V12.2559C37.5726 11.0998 36.9954 10.1626 36.2835 10.1626Z" fill="url(#paint12_linear_8_209)"/>
<path d="M0.427429 12.5469V14.0606C0.427429 15.2166 1.00456 16.1538 1.71647 16.1538H36.2835C36.9954 16.1538 37.5725 15.2166 37.5725 14.0606V12.5469H0.427429Z" fill="url(#paint13_linear_8_209)"/>
<defs>
<linearGradient id="paint0_linear_8_209" x1="2.73468" y1="9.24239" x2="4.99439" y2="9.24239" gradientUnits="userSpaceOnUse">
<stop stop-color="#E1D3CE"/>
<stop offset="1" stop-color="#9E9797"/>
</linearGradient>
<linearGradient id="paint1_linear_8_209" x1="6.96997" y1="9.24239" x2="9.22968" y2="9.24239" gradientUnits="userSpaceOnUse">
<stop stop-color="#E1D3CE"/>
<stop offset="1" stop-color="#9E9797"/>
</linearGradient>
<linearGradient id="paint2_linear_8_209" x1="12.0222" y1="9.88932" x2="14.2819" y2="9.88932" gradientUnits="userSpaceOnUse">
<stop stop-color="#E1D3CE"/>
<stop offset="1" stop-color="#9E9797"/>
</linearGradient>
<linearGradient id="paint3_linear_8_209" x1="18.5971" y1="9.88932" x2="20.8568" y2="9.88932" gradientUnits="userSpaceOnUse">
<stop stop-color="#E1D3CE"/>
<stop offset="1" stop-color="#9E9797"/>
</linearGradient>
<linearGradient id="paint4_linear_8_209" x1="25.279" y1="9.88932" x2="27.5387" y2="9.88932" gradientUnits="userSpaceOnUse">
<stop stop-color="#E1D3CE"/>
<stop offset="1" stop-color="#9E9797"/>
</linearGradient>
<linearGradient id="paint5_linear_8_209" x1="31.4543" y1="9.88932" x2="33.714" y2="9.88932" gradientUnits="userSpaceOnUse">
<stop stop-color="#E1D3CE"/>
<stop offset="1" stop-color="#9E9797"/>
</linearGradient>
<linearGradient id="paint6_linear_8_209" x1="4.82548" y1="1.977" x2="14.1118" y2="23.0594" gradientUnits="userSpaceOnUse">
<stop stop-color="#FD8087"/>
<stop offset="1" stop-color="#E74335"/>
</linearGradient>
<linearGradient id="paint7_linear_8_209" x1="10.8092" y1="-0.658672" x2="20.0955" y2="20.4237" gradientUnits="userSpaceOnUse">
<stop stop-color="#FD8087"/>
<stop offset="1" stop-color="#E74335"/>
</linearGradient>
<linearGradient id="paint8_linear_8_209" x1="17.2399" y1="-3.49124" x2="26.5261" y2="17.5911" gradientUnits="userSpaceOnUse">
<stop stop-color="#FD8087"/>
<stop offset="1" stop-color="#E74335"/>
</linearGradient>
<linearGradient id="paint9_linear_8_209" x1="21.9122" y1="-5.54927" x2="31.1985" y2="15.5331" gradientUnits="userSpaceOnUse">
<stop stop-color="#FD8087"/>
<stop offset="1" stop-color="#E74335"/>
</linearGradient>
<linearGradient id="paint10_linear_8_209" x1="25.7753" y1="-7.25092" x2="35.0616" y2="13.8314" gradientUnits="userSpaceOnUse">
<stop stop-color="#FD8087"/>
<stop offset="1" stop-color="#E74335"/>
</linearGradient>
<linearGradient id="paint11_linear_8_209" x1="8.64792" y1="2.80624" x2="19.6942" y2="13.8524" gradientUnits="userSpaceOnUse">
<stop stop-color="#C59191"/>
<stop offset="1" stop-color="#9B5E5E"/>
</linearGradient>
<linearGradient id="paint12_linear_8_209" x1="34.7646" y1="13.1583" x2="37.5508" y2="13.1583" gradientUnits="userSpaceOnUse">
<stop stop-color="#9B5E5E" stop-opacity="0"/>
<stop offset="0.2469" stop-color="#955857" stop-opacity="0.247"/>
<stop offset="0.6116" stop-color="#854943" stop-opacity="0.612"/>
<stop offset="1" stop-color="#6D3326"/>
</linearGradient>
<linearGradient id="paint13_linear_8_209" x1="19" y1="13.2999" x2="19" y2="16.565" gradientUnits="userSpaceOnUse">
<stop stop-color="#9B5E5E" stop-opacity="0"/>
<stop offset="0.2469" stop-color="#955857" stop-opacity="0.247"/>
<stop offset="0.6116" stop-color="#854943" stop-opacity="0.612"/>
<stop offset="1" stop-color="#6D3326"/>
</linearGradient>
</defs>
</svg>
