<svg width="8" height="9" viewBox="0 0 8 9" fill="none" xmlns="http://www.w3.org/2000/svg">
<path d="M5.9485 8.20205H1.80732C0.873801 8.20205 0.117096 7.44534 0.117096 6.51182V2.37065C0.117096 1.43713 0.873801 0.68042 1.80732 0.68042H5.9485C6.88202 0.68042 7.63873 1.43713 7.63873 2.37065V6.51182C7.63873 7.44534 6.88202 8.20205 5.9485 8.20205Z" fill="url(#paint0_linear_8_191)"/>
<path d="M5.9485 8.20205H1.80732C0.873801 8.20205 0.117096 7.44534 0.117096 6.51182V2.37065C0.117096 1.43713 0.873801 0.68042 1.80732 0.68042H5.9485C6.88202 0.68042 7.63873 1.43713 7.63873 2.37065V6.51182C7.63873 7.44534 6.88202 8.20205 5.9485 8.20205Z" fill="url(#paint1_linear_8_191)"/>
<path d="M0.117004 6.51182V2.37065C0.117004 1.43713 0.873713 0.68042 1.80724 0.68042H5.94841C6.88193 0.68042 7.63864 1.43713 7.63864 2.37065V6.51182C7.63864 7.44534 6.88193 8.20205 5.94841 8.20205H1.80724C0.873839 8.20205 0.117004 7.44534 0.117004 6.51182Z" fill="url(#paint2_linear_8_191)"/>
<defs>
<linearGradient id="paint0_linear_8_191" x1="1.72362" y1="2.28695" x2="5.95365" y2="6.51697" gradientUnits="userSpaceOnUse">
<stop stop-color="#99E6FC"/>
<stop offset="1" stop-color="#01C0FA"/>
</linearGradient>
<linearGradient id="paint1_linear_8_191" x1="1.90797" y1="4.44124" x2="-0.769116" y2="4.44124" gradientUnits="userSpaceOnUse">
<stop stop-color="#017BAE" stop-opacity="0"/>
<stop offset="1" stop-color="#017BAE"/>
</linearGradient>
<linearGradient id="paint2_linear_8_191" x1="3.87795" y1="2.47142" x2="3.87795" y2="-0.205792" gradientUnits="userSpaceOnUse">
<stop stop-color="#017BAE" stop-opacity="0"/>
<stop offset="1" stop-color="#017BAE"/>
</linearGradient>
</defs>
</svg>
